<svg xmlns="http://www.w3.org/2000/svg" xmlns:xlink="http://www.w3.org/1999/xlink" width="353.272" height="685.638" viewBox="0 0 353.272 685.638">
  <defs>
    <clipPath id="clip-path">
      <rect id="Rectangle_405" data-name="Rectangle 405" width="353.272" height="685.638" fill="#ffc167"/>
    </clipPath>
  </defs>
  <g id="Group_901" data-name="Group 901" opacity="0.4">
    <g id="Group_582" data-name="Group 582" transform="translate(0 0)" clip-path="url(#clip-path)">
      <path id="Path_28" data-name="Path 28" d="M3.551.014a58.787,58.787,0,0,1,18.62,2.642,245.67,245.67,0,0,1,72.4,25.066,258.715,258.715,0,0,1,39.889,26.271q9.146,7.306,17.589,15.44c.915.886,1.844,1.793,2.773,2.693a3.017,3.017,0,0,1,1.336,1c.225.3.407.632.632.929,4.174,4.159,8.188,8.566,11,13.654a2.511,2.511,0,0,1-.131,2.374A361.206,361.206,0,0,1,191.156,132.4a3.079,3.079,0,0,1,1,2.083c4.871,10.46,9.437,21.066,13.35,31.918-2.78-16.957-3.971-33.856-1.14-51,5.51-33.269,23.505-64.41,49.115-86.267a138.448,138.448,0,0,1,49.95-27.389C307.04.66,308.8,5.037,306.8,7.535,284.675,35.235,259.58,70.3,278.57,106.4c3.971,7.549,8.217,14.932,9.553,23.483a61.358,61.358,0,0,1-1.633,24.87c-4.218,16.348-12.849,31.838-22.14,45.82-10.518,15.825-23.084,30.575-37.972,42.451a3.735,3.735,0,0,1-1.394.69,433.483,433.483,0,0,1,4.559,79.683,443.069,443.069,0,0,1-10.279,79.749,25.863,25.863,0,0,1-.566,2.744,496.857,496.857,0,0,1-48.73,127.789c30.024-7.571,51.467-33.261,66.929-59.256,8.914-15,16.369-30.88,26-45.449a117.818,117.818,0,0,1,33.857-34.2c15.81-10.344,33.6-17.182,51.14-23.941,4.559-1.757,7.608,5.626,3.317,7.869-20.681,10.8-24.434,36.361-24.637,57.369-.247,25.051-1.35,49.173-8.8,73.317-6.533,21.146-16.021,42.981-33.29,57.587-16.093,13.618-36.564,20.536-57.369,22.358-27.984,2.454-55.837-4.972-82.057-14.01-.109-.036-.167-.116-.269-.152-26.51,39.584-57.95,76.772-93.9,108.023a4.783,4.783,0,0,1-4.268,1.111c-2.737,3.245-8.435.015-5.967-3.84,1.089-1.691,2.141-3.426,3.223-5.132a4.342,4.342,0,0,1,.058-.6c6.112-20.246-1.67-40.833-10.613-58.951-8.624-17.487-18.1-34.539-21.393-54.008-6.533-38.655,6.925-77.28,23.527-111.667,9.843-20.376,22.779-39.693,22.315-63.132-.044-2.279,2.933-4.414,4.965-2.853a66.64,66.64,0,0,1,25.494,41.043c3.818,19.033,1.227,38.11-2.526,56.919-4.747,23.774-10.439,47.315-5.88,71.6,2.112,11.288,4.8,22.438,4.965,33.98a110.545,110.545,0,0,1-4.334,31.258A171.7,171.7,0,0,1,65.145,655.41c23.541-23.9,45.507-49.144,64.824-76.765q13.262-18.968,24.95-39.018a3.888,3.888,0,0,1,2.033-3.521,503.494,503.494,0,0,0,33.479-70.232q5.6-14.623,10.163-29.588c.784-12.028-3.608-24.035-10.8-34.5-10.46-15.23-25.654-26.583-36.346-41.7-11.753-16.609-14.714-36.208-12.936-56.149,1.989-22.271,8.987-44.077,8.181-66.581-.6-16.877-7.39-35.983-22.235-45.05-2.5-1.2-4.958-2.461-7.52-3.506-4.6-1.887-2.882-9.313,2.12-7.687a45.127,45.127,0,0,1,8.159,3.695A163.369,163.369,0,0,1,195.547,243.1a177.054,177.054,0,0,1,24.95,61.521,417.862,417.862,0,0,0-10.86-94.884,405.814,405.814,0,0,0-23.868-71.314c-28.637,1.532-55.38-12.827-76.01-31.838C98.29,96.016,88.788,83.755,80.106,70.856c-9.495-14.1-18.2-28.92-29.915-41.362-7.905-8.384-17.741-15.3-28.623-19.055C15.587,9.233,9.583,8.173,3.551,7.389c-4.566-.6-4.9-7.259,0-7.375M69.667,625.336a121.829,121.829,0,0,0,6.678-30.474c.886-10.925-.5-21.516-2.359-32.267-1.873-10.845-3.463-21.625-3.005-32.659a204.268,204.268,0,0,1,4.239-31.178c3.905-19.614,9.146-39.214,8.029-59.387-.893-16.043-5.684-34.895-18.46-45.711-.073,16.362-8.246,31.911-15.564,46.2-9.386,18.351-17.959,37.188-23.81,56.991-5.7,19.28-8.8,39.649-6.047,59.706,2.831,20.652,13.03,38.227,22.119,56.6,4.791,9.691,8.994,19.97,11.3,30.525a25.344,25.344,0,0,0,2.352-4.893,51.736,51.736,0,0,0,2.5-16.268c.044-14-4.428-27.3-7.8-40.724C43.2,555.322,43.9,527.331,50.9,501.031c1.183-4.414,7.673-2.534,6.795,1.873a192.506,192.506,0,0,0-3.608,43.772c.486,14.736,3.346,29.007,6.475,43.366,2.78,12.769,5.742,25.748,4.268,38.887A56.423,56.423,0,0,1,61.1,644.188c-1.466,3.564-3.564,8.145-6.635,11.063.051.733.138,1.459.167,2.185a198.449,198.449,0,0,0,15.034-32.1m88.5-71.118a4.829,4.829,0,0,1-.087,4.377c-.4.791-.806,1.583-1.205,2.374,2.933-.3,5.851-.6,8.529-1.14a193.953,193.953,0,0,0,23.8-6.294c16.05-5.444,30.633-13.182,43.591-24.187,1.662-1.416,4.072.937,2.417,2.417-12.566,11.281-26.968,21.509-42.364,28.506a128.814,128.814,0,0,1-23.49,8.29c-2.1.494-4.457,1.1-6.911,1.67,38.829,11.513,84.177,17.24,116.973-10.678,17.371-14.787,27.28-37.152,33.3-58.7a176.411,176.411,0,0,0,6.323-36.811c.74-11.985-.015-23.991.436-35.983.53-14.032,3.107-28.906,10.41-40.7a194.32,194.32,0,0,0-25.828,13.117c-15.288,9.509-26.96,22.22-36.375,37.472-18.395,29.8-31.49,63.474-59.735,85.861-12.529,9.93-27.091,16.986-42.9,18.787-2.236,3.913-4.551,7.774-6.882,11.622m53.093-254.112a167.576,167.576,0,0,0-47.714-82.427,151.817,151.817,0,0,0-14.126-11.564,66.4,66.4,0,0,1,5.314,13.3c6.17,22.22.385,45.718-3.4,67.815-3.905,22.779-5.306,46.48,8.029,66.566,11.135,16.769,28.144,28.739,38.931,45.776a76.827,76.827,0,0,1,7.927,16.681c.283-1.1.537-2.207.813-3.31a3.531,3.531,0,0,1-.777-3.572c1.662-5.568,3.063-11.186,4.341-16.827-.051-.944-.058-1.895-.131-2.838a124.707,124.707,0,0,0-3.209-20.238,135.062,135.062,0,0,0-6.069-18.772c-1.249-3.049-2.751-5.974-4.051-8.994-1.27-2.947-3.158-6.018-3.259-9.255a3.188,3.188,0,0,1,4.755-2.729c2.758,1.582,4.435,4.733,6.1,7.375a68.3,68.3,0,0,1,4.871,9.989,123.654,123.654,0,0,1,5.648,16.79c2.091-21.233,1.14-42.662-4-63.764m3.15-132.631c2.112,11.774,4.472,23.512,6.882,35.236,2.054,10,4.544,19.984,5.677,30.133.3-.312.6-.639.907-.951-2.7-8.348-3.172-17.008-3.542-25.734a256.2,256.2,0,0,1,.363-27.737,246.71,246.71,0,0,1,9.546-53.354c.864-2.925,5.277-1.713,4.573,1.263a297.807,297.807,0,0,0-7.724,53.086c-.443,8.573-.472,17.175-.123,25.755.3,7.441,1.161,14.816,1.205,22.242,20.333-21.356,38.793-46.393,46.466-74.82,2.461-9.1,3.165-18.656.312-27.759-2.621-8.348-7.716-15.665-10.729-23.875-5.793-15.789-4.043-33.4,1.88-48.883,5.589-14.62,14.54-27.418,24.086-39.693C267.6,23.309,245.279,43.46,230.413,68.076a136.209,136.209,0,0,0-17.4,45.065c-3.448,18.22-1.844,36.208,1.4,54.334M76.091,48.527c9.444,13.633,17.937,27.955,28.978,40.4a140.443,140.443,0,0,0,35.287,29.24,100.708,100.708,0,0,0,34.1,11.847,231.637,231.637,0,0,1-24.115-17.749q-6.435-5.553-12.5-11.527c-4.138-4.087-9.2-8.312-11.716-13.6-1.43-3.02,1.691-7.216,5-5,4.7,3.15,8.087,7.985,11.963,12.094S151,102.346,155.15,106.2a275.646,275.646,0,0,0,25.414,21.356,377.1,377.1,0,0,0-24.376-43.569c-2.722-2.722-5.372-5.524-8.145-8.2q-8.45-8.1-17.64-15.4A250.978,250.978,0,0,0,92.011,35.41,257.645,257.645,0,0,0,48.347,17.254c10.8,8.885,20.042,20.151,27.744,31.272" transform="translate(-0.001 0.001)" fill="#ffc167"/>
      <path id="Path_29" data-name="Path 29" d="M8.64,50.563a5.336,5.336,0,0,1,.893-2.287,3.721,3.721,0,0,1,2.686-1.764,3.57,3.57,0,0,1,.806.08,8.381,8.381,0,0,1,5.132-3.2,4.161,4.161,0,0,1,4.058.994,7.1,7.1,0,0,1,.784.007,6.963,6.963,0,0,1,3.034,1.677,9.547,9.547,0,0,1,2.846,4.668,11.957,11.957,0,0,1-1.8,10.417,8.716,8.716,0,0,1-11.419,2.1,11.088,11.088,0,0,1-4.653-7.223,9.309,9.309,0,0,1-1.539-1.945,5.638,5.638,0,0,1-.828-3.521" transform="translate(261.501 270.603)" fill="#ffc167"/>
      <path id="Path_30" data-name="Path 30" d="M30.855,62.853a4.219,4.219,0,0,1,2.49-2.49,3.516,3.516,0,0,1,1.808-.4l1.256.167a4.724,4.724,0,0,1,2.076,1.205c.247.319.486.639.733.958a4.7,4.7,0,0,1,.646,2.374l-.1,2.541a3.553,3.553,0,0,1-.392,1.778,3.445,3.445,0,0,1-.958,1.481,3.365,3.365,0,0,1-1.481.951,3.483,3.483,0,0,1-1.778.4c-.407-.051-.813-.109-1.22-.167A4.538,4.538,0,0,1,31.9,70.468c-.24-.3-.486-.617-.726-.929a4.594,4.594,0,0,1-.624-2.33l-.1-2.541a3.548,3.548,0,0,1,.406-1.815" transform="translate(92.398 375.3)" fill="#ffc167"/>
      <path id="Path_31" data-name="Path 31" d="M36.322,27.859a7.33,7.33,0,0,1,1.88-3.223c.494-.377.98-.762,1.474-1.14a7.226,7.226,0,0,1,3.688-.995,5.444,5.444,0,0,1,2.817.624,5.518,5.518,0,0,1,2.345,1.51,5.431,5.431,0,0,1,1.51,2.352,5.512,5.512,0,0,1,.632,2.809c-.087.653-.174,1.3-.261,1.945a7.33,7.33,0,0,1-1.88,3.223c-.494.377-.98.762-1.474,1.14a7.227,7.227,0,0,1-3.688.994,5.417,5.417,0,0,1-2.809-.624,5.5,5.5,0,0,1-2.352-1.51,5.431,5.431,0,0,1-1.51-2.352A5.522,5.522,0,0,1,36.06,29.8l.261-1.938" transform="translate(40.864 140.807)" fill="#ffc167"/>
    </g>
  </g>
</svg>
