<svg xmlns="http://www.w3.org/2000/svg" xmlns:xlink="http://www.w3.org/1999/xlink" width="349.047" height="83.818" viewBox="0 0 349.047 83.818">
  <defs>
    <clipPath id="clip-path">
      <rect id="Rectangle_3" data-name="Rectangle 3" width="61.615" height="83.818" fill="none"/>
    </clipPath>
    <clipPath id="clip-path-2">
      <rect id="Rectangle_4" data-name="Rectangle 4" width="132.01" height="35.368" fill="none"/>
    </clipPath>
    <clipPath id="clip-path-3">
      <rect id="Rectangle_5" data-name="Rectangle 5" width="140" height="26.414" fill="none"/>
    </clipPath>
  </defs>
  <g id="Group_893" data-name="Group 893" transform="translate(-789.953 -9.591)">
    <g id="Group_5" data-name="Group 5" transform="translate(929.192 9.591)">
      <g id="Group_4" data-name="Group 4" clip-path="url(#clip-path)">
        <path id="Path_14" data-name="Path 14" d="M58.083,83.326a2.431,2.431,0,0,0-.215-.229,1.874,1.874,0,0,0-2.427-.246c-.822.661-1.445,2.012-.741,2.959a2.271,2.271,0,0,0,1.005.721.273.273,0,0,1,.134.085.26.26,0,0,1,.03.155c0,.239,0,.477-.025.715a3.008,3.008,0,0,1-.212.844,3.551,3.551,0,0,1-1.027,1.348,3.811,3.811,0,0,1-4.429.572,7.261,7.261,0,0,1-3.521-4.426c-.008-.027-.015-.053-.021-.08a16.664,16.664,0,0,0,4.659-5.121,29.179,29.179,0,0,0,2.82-6.393,44.617,44.617,0,0,0,1.44-6.086c.232-1.39.41-2.792.518-4.2a35.694,35.694,0,0,0-.82-10.477A20.418,20.418,0,0,0,52.826,47.2a9.861,9.861,0,0,0-2.55-2.853.248.248,0,0,1-.1-.109.255.255,0,0,1-.007-.1c0-.9.175-1.8.188-2.695a17.947,17.947,0,0,0-.849-6.571,6,6,0,0,0-3.017-3.479c-1.73-.756-3.956-.433-5.721.048a15.661,15.661,0,0,0-6.108,3.235,20.233,20.233,0,0,0-3.376,3.846,34.758,34.758,0,0,0-4.314,9.288,60.09,60.09,0,0,0-2.087,9.31q-.239,1.644-.4,3.3c-.059.631-.111,1.263-.145,1.9,0,.1-.01.194-.014.29l7.652-.139s-.876-8.389,2.671-19.819,9.772-10.462,9.772-10.462C49.862,33.707,48.2,42.232,48.2,42.232c-1.244-1.019-2.927-2.087-4.613-1.7a3.46,3.46,0,0,0-1.761,1.083,5.5,5.5,0,0,0-1.041,1.81,4.423,4.423,0,0,1,2.9-.554,3.9,3.9,0,0,1,2.072,1.265,4.973,4.973,0,0,1,1.323,2.47,5,5,0,0,1-.584,2.226q-.458,1.2-1,2.362a27.34,27.34,0,0,1-2.6,4.423,26.547,26.547,0,0,1-4.794,5.044,23.134,23.134,0,0,1-3.72,2.472,3.494,3.494,0,0,1-1.01.483,34.436,34.436,0,0,1-8.994-.143A15.023,15.023,0,0,1,19.957,62.1a13.26,13.26,0,0,1-3.692-3.069,23.5,23.5,0,0,1-2.918-4.047,19.722,19.722,0,0,1-1.617-3.571,18.257,18.257,0,0,1-.773-7.827,23.419,23.419,0,0,1,1.906-6.772,30.658,30.658,0,0,1,2.846-5.041,27.354,27.354,0,0,1,2.048-2.633c.062-.069.124-.139.188-.206C-.193,45.45,13.326,60.068,13.583,60.341c-14.94-10.024-2-29.24-1.708-29.671C-3.4,47.869,9.59,60.824,9.849,61.078a22.008,22.008,0,0,1-5.962-6.908A17.61,17.61,0,0,1,1.9,47.2a20.824,20.824,0,0,1,.642-6.625,29.131,29.131,0,0,1,2.974-7.081A15.771,15.771,0,0,0,2.729,38,46.034,46.034,0,0,0,.8,42.508a14.066,14.066,0,0,0-.778,3.451,13.636,13.636,0,0,0,.309,3.46,22.007,22.007,0,0,0,2.96,7.732,25.307,25.307,0,0,0,2.413,3.286A18.923,18.923,0,0,0,13.884,65.8a26.428,26.428,0,0,0,9.54,1.324c.454-.017.911-.039,1.363-.1A20.68,20.68,0,0,0,30.733,83.3c7.284,7.652,14.243,4.149,14.243,4.149,1.19,2.707,3.307,5.629,6.585,5.551a5.661,5.661,0,0,0,1.762-.324A8.365,8.365,0,0,0,58.13,87.36a7.631,7.631,0,0,0,.543-1.886,2.958,2.958,0,0,0-.589-2.148M39.659,86.2c-4.177-1.1-6.082-7-6.082-7s.859-5.962,3.932-4.24,6.146,9.463,6.146,9.463.184,2.888-4,1.781m5.654-3.133s-2.888-8.726-6.636-9.772-5.9,2.521-5.9,2.521l-.615-9.772C41.32,64.2,48.571,50.5,48.571,50.5L49,60.515c.429,20.957-3.689,22.554-3.689,22.554" transform="translate(0 -9.184)" fill="#fff"/>
        <path id="Path_15" data-name="Path 15" d="M72.2,7.927,61.368,25.857s-.506-4.009-5.484-5.162S43.9,25.4,43.9,25.4L33.346,7.652H45.422V7.7a6.175,6.175,0,1,0,3.206.9L52.473,0,57.62,8.149a6.176,6.176,0,1,0,4.1-.188l.014-.033Z" transform="translate(-10.585)" fill="#ffc167"/>
      </g>
    </g>
    <g id="Group_7" data-name="Group 7" transform="translate(789.953 50)">
      <g id="Group_6" data-name="Group 6" transform="translate(0 0)" clip-path="url(#clip-path-2)">
        <path id="Path_16" data-name="Path 16" d="M13.954.081a16.3,16.3,0,0,1,7.4,1.58A11.482,11.482,0,0,1,26.2,6.116,13.281,13.281,0,0,1,27.908,13a13.293,13.293,0,0,1-1.7,6.87,11.422,11.422,0,0,1-4.864,4.475,16.324,16.324,0,0,1-7.386,1.58,16.3,16.3,0,0,1-7.4-1.58A11.485,11.485,0,0,1,1.7,19.892,13.27,13.27,0,0,1,0,13a13.3,13.3,0,0,1,1.7-6.87A11.447,11.447,0,0,1,6.551,1.661a16.3,16.3,0,0,1,7.4-1.58m0,24.356a6.942,6.942,0,0,0,4.35-1.4,8.8,8.8,0,0,0,2.805-3.959A17.038,17.038,0,0,0,22.085,13a17.038,17.038,0,0,0-.976-6.072A8.8,8.8,0,0,0,18.3,2.974a6.942,6.942,0,0,0-4.35-1.4,6.935,6.935,0,0,0-4.35,1.4A8.8,8.8,0,0,0,6.8,6.933,17,17,0,0,0,5.824,13a16.752,16.752,0,0,0,.993,6.072A8.907,8.907,0,0,0,9.64,23.036a6.883,6.883,0,0,0,4.314,1.4m-.213,1.492-1.03-1.419q2.06.14,3.728.372t3.161.569q1.49.335,3.018.817T25.885,27.4q1.738.655,3.941,1.509a25.917,25.917,0,0,0,4.7,1.349,19.308,19.308,0,0,0,4.457.319,14.259,14.259,0,0,0,3.976-.745,10.55,10.55,0,0,0,3.3-1.847l.213.143a6.34,6.34,0,0,1-1.065,3.124,8.193,8.193,0,0,1-2.663,2.487,11.164,11.164,0,0,1-4.031,1.4,15.73,15.73,0,0,1-5.13-.106,21.3,21.3,0,0,1-5.965-2.078A38.219,38.219,0,0,1,23.86,30.81q-1.775-1.154-3.462-2.219A26.14,26.14,0,0,0,17.078,26.8a10.229,10.229,0,0,0-3.337-.87" transform="translate(0 0.062)" fill="#ffc167"/>
        <path id="Path_17" data-name="Path 17" d="M19.856.363V2.494h-.107A1.645,1.645,0,0,0,19.2,1.215a1.921,1.921,0,0,0-1.331-.5H17.3V.363Zm5.218,0V15.987a10.517,10.517,0,0,0,.835,4.366,6.431,6.431,0,0,0,2.379,2.842,6.647,6.647,0,0,0,3.675.993,7.188,7.188,0,0,0,3.746-.94,6.22,6.22,0,0,0,2.432-2.68,9.267,9.267,0,0,0,.852-4.119V.363H41.55V16.235a9.942,9.942,0,0,1-1.226,5.042,8.22,8.22,0,0,1-3.515,3.284,12.174,12.174,0,0,1-5.521,1.153,15.624,15.624,0,0,1-6.355-1.153,8.407,8.407,0,0,1-3.888-3.267,9.416,9.416,0,0,1-1.3-5.024V.363Zm2.451,0V.719h-.569a1.915,1.915,0,0,0-1.331.5,1.646,1.646,0,0,0-.551,1.278H25V.363ZM39.1.363V2.494h-.107a1.645,1.645,0,0,0-.549-1.278,1.921,1.921,0,0,0-1.331-.5h-.569V.363Zm4.9,0V.719H43.43a1.921,1.921,0,0,0-1.331.5,1.645,1.645,0,0,0-.549,1.278h-.07V.363Z" transform="translate(13.165 0.277)" fill="#ffc167"/>
        <path id="Path_18" data-name="Path 18" d="M36.491,3.231h-.106a2.3,2.3,0,0,0-.692-1.58A2.161,2.161,0,0,0,34.112.995h-.461V.639h2.84Zm0,19.67v2.592h-2.84v-.356h.461a2.154,2.154,0,0,0,1.581-.657,2.29,2.29,0,0,0,.692-1.58Zm5.22,2.592H36.386V.639h5.325Zm9.8-23.328H41.605V.639h9.906Zm-1.74,11.823H41.605V12.5h8.166Zm1.314,9.978.852,1.527H41.605V23.967Zm2.592-5.751-1.634,7.278H45.085l1.277-1.527a6.761,6.761,0,0,0,3.126-.692,6.6,6.6,0,0,0,2.307-1.988,10.5,10.5,0,0,0,1.527-3.071ZM49.771,9.161V12.57H46.4V12.5a3.027,3.027,0,0,0,2.166-.907,2.994,2.994,0,0,0,.851-2.184V9.161Zm0,4.758v3.409h-.356v-.285a2.94,2.94,0,0,0-.851-2.166,3.069,3.069,0,0,0-2.166-.888v-.07ZM51.511,0V1.03L47.179.639A13.739,13.739,0,0,0,48.831.534Q49.7.428,50.446.285A5.352,5.352,0,0,0,51.511,0m0,2.06V6.215h-.356V5.788a3.592,3.592,0,0,0-.976-2.627,3.664,3.664,0,0,0-2.645-1.03V2.06Z" transform="translate(25.608 0.001)" fill="#ffc167"/>
        <path id="Path_19" data-name="Path 19" d="M49.152,3.231h-.106a2.3,2.3,0,0,0-.692-1.58A2.161,2.161,0,0,0,46.773.995h-.461V.639h2.84Zm0,19.67v2.592h-2.84v-.356h.461a2.154,2.154,0,0,0,1.581-.657,2.29,2.29,0,0,0,.692-1.58Zm5.22,2.592H49.047V.639h5.325Zm9.8-23.328H54.266V.639h9.906Zm-1.74,11.823H54.266V12.5h8.166Zm1.314,9.978.852,1.527H54.266V23.967Zm2.592-5.751L64.7,25.494H57.746l1.277-1.527a6.761,6.761,0,0,0,3.126-.692,6.6,6.6,0,0,0,2.307-1.988,10.5,10.5,0,0,0,1.527-3.071ZM62.432,9.161V12.57H59.06V12.5a3.027,3.027,0,0,0,2.166-.907,2.994,2.994,0,0,0,.851-2.184V9.161Zm0,4.758v3.409h-.356v-.285a2.94,2.94,0,0,0-.851-2.166,3.069,3.069,0,0,0-2.166-.888v-.07ZM64.172,0V1.03L59.84.639A13.739,13.739,0,0,0,61.492.534q.869-.106,1.615-.248A5.352,5.352,0,0,0,64.172,0m0,2.06V6.215h-.356V5.788a3.592,3.592,0,0,0-.976-2.627A3.664,3.664,0,0,0,60.2,2.131V2.06Z" transform="translate(35.243 0.001)" fill="#ffc167"/>
        <path id="Path_20" data-name="Path 20" d="M61.68,22.926v2.522H58.732v-.356h.674a2.183,2.183,0,0,0,2.166-2.166ZM61.5.061l5.112,5.433.035,19.954H61.572V4.5A25.98,25.98,0,0,0,61.146.061Zm0,0L84.154,21.647l.428,4.3L61.928,4.391Zm5.147,22.865a2.186,2.186,0,0,0,2.166,2.166h.674v.356H66.544V22.926ZM76.557.593H79.5V3.115h-.07a2.22,2.22,0,0,0-.657-1.544A2.1,2.1,0,0,0,77.231.949h-.674Zm7.917,0V21.4a23.142,23.142,0,0,0,.107,2.361q.106,1.049.319,2.184h-.319l-5.149-5.751V.593Zm2.84,0V.949h-.639a2.116,2.116,0,0,0-1.527.622,2.185,2.185,0,0,0-.674,1.544h-.107V.593Z" transform="translate(44.695 0.047)" fill="#ffc167"/>
      </g>
    </g>
    <g id="Group_9" data-name="Group 9" transform="translate(999 50.385)">
      <g id="Group_8" data-name="Group 8" transform="translate(0 0)" clip-path="url(#clip-path-3)">
        <path id="Path_21" data-name="Path 21" d="M2.879,3.032H2.77a2.328,2.328,0,0,0-.7-1.6A2.189,2.189,0,0,0,.468.764H0V.4H2.879Zm0,19.935v2.627H0v-.359H.468a2.182,2.182,0,0,0,1.6-.666,2.328,2.328,0,0,0,.7-1.6Zm5.289,2.627H2.77V.4h5.4ZM8.06,3.032V.4h2.879V.764h-.468a2.184,2.184,0,0,0-1.6.666,2.307,2.307,0,0,0-.7,1.6Zm9.608,21.015.864,1.547H8.06V24.047ZM20.3,18.218l-1.655,7.377H11.587l1.3-1.547a6.85,6.85,0,0,0,3.166-.7,6.7,6.7,0,0,0,2.34-2.015,10.667,10.667,0,0,0,1.546-3.113Z" transform="translate(0 0.316)" fill="#fff"/>
        <path id="Path_22" data-name="Path 22" d="M17.039,23.284a1.727,1.727,0,0,0-.109,1.224,1.464,1.464,0,0,0,.612.773,1.611,1.611,0,0,0,.864.27h.323v.361h-7.7V25.55h.323a3.358,3.358,0,0,0,1.71-.521,3.844,3.844,0,0,0,1.456-1.746ZM24.776,0l.143,4.391L15.995,25.8H13.367L22.688,4.714q.107-.217.378-.81t.575-1.348c.2-.505.391-.991.559-1.458A3.516,3.516,0,0,0,24.451,0Zm3.779,18.857H17.974V17.345H28.555ZM24.776,0,36.544,25.7H30.065L22.581,6.945Zm4.318,23.284h6.3a4.105,4.105,0,0,0,1.476,1.746,3.26,3.26,0,0,0,1.692.521h.287v.361H27.4V25.55h.325a1.656,1.656,0,0,0,1.26-.594,1.513,1.513,0,0,0,.107-1.672" transform="translate(8.656 0)" fill="#fff"/>
        <path id="Path_23" data-name="Path 23" d="M35.229.12q.718,0,1.781.073t2.2.2q1.133.126,1.979.252a5.119,5.119,0,0,1,1.169.27l-.432,4.858h-.361a3.694,3.694,0,0,0-1.385-3.006,5.654,5.654,0,0,0-3.689-1.133A5.282,5.282,0,0,0,33.123,2.64a3.242,3.242,0,0,0-1.349,2.447,2.547,2.547,0,0,0,.684,1.871,8.366,8.366,0,0,0,1.835,1.476L41.166,12.9a6.1,6.1,0,0,1,3.24,5.974,7.042,7.042,0,0,1-2.7,5.488,10.848,10.848,0,0,1-6.838,1.962,17.235,17.235,0,0,1-3.077-.271,12.512,12.512,0,0,1-2.645-.755,5.678,5.678,0,0,1-1.835-1.169,5.077,5.077,0,0,1-.252-1.908A10.064,10.064,0,0,1,27.4,19.95a7.082,7.082,0,0,1,.775-1.908H28.5a6.208,6.208,0,0,0,.666,3.4,6.078,6.078,0,0,0,2.376,2.483,7,7,0,0,0,3.725.882,5.411,5.411,0,0,0,3.67-1.2,3.673,3.673,0,0,0,1.3-2.825,3.3,3.3,0,0,0-.666-2.015,6.625,6.625,0,0,0-2.178-1.728l-6.3-4.175a6.69,6.69,0,0,1-2.772-2.77,6.613,6.613,0,0,1-.684-3.671A7.136,7.136,0,0,1,28.75,3.126,6.281,6.281,0,0,1,31.324.912,8.909,8.909,0,0,1,35.229.12M42.39.481l-.071.757H38.071V.481Z" transform="translate(21.235 0.094)" fill="#fff"/>
        <path id="Path_24" data-name="Path 24" d="M41.308,3.03H41.2a2.312,2.312,0,0,0-.7-1.6A2.182,2.182,0,0,0,38.9.764h-.468V.4h2.879Zm0,19.937v2.627H38.429v-.361H38.9a2.182,2.182,0,0,0,1.6-.666,2.305,2.305,0,0,0,.7-1.6Zm5.29,2.627H41.2V.4h5.4ZM58.58,13.827H46.238V12.28H58.58ZM46.489,3.03V.4h2.879V.764H48.9a2.177,2.177,0,0,0-1.6.666,2.312,2.312,0,0,0-.7,1.6Zm0,19.937H46.6a2.305,2.305,0,0,0,.7,1.6,2.177,2.177,0,0,0,1.6.666h.468v.361H46.489ZM58.366,3.03h-.109a2.159,2.159,0,0,0-.684-1.6A2.24,2.24,0,0,0,55.955.764h-.468V.4h2.879Zm0,19.937v2.627H55.487v-.361h.468a2.24,2.24,0,0,0,1.619-.666,2.153,2.153,0,0,0,.684-1.6Zm5.289,2.627h-5.4V.4h5.4ZM63.548,3.03V.4h2.879V.764h-.468a2.177,2.177,0,0,0-1.6.666,2.322,2.322,0,0,0-.7,1.6Zm0,19.937h.107a2.315,2.315,0,0,0,.7,1.6,2.177,2.177,0,0,0,1.6.666h.468v.361H63.548Z" transform="translate(30.162 0.316)" fill="#fff"/>
        <path id="Path_25" data-name="Path 25" d="M58.687,3.315H58.58a2.328,2.328,0,0,0-.7-1.6,2.19,2.19,0,0,0-1.6-.666h-.468V.688h2.879Zm0,19.937V25.88H55.808v-.361h.468a2.184,2.184,0,0,0,1.6-.666,2.321,2.321,0,0,0,.7-1.6Zm5.29,2.627h-5.4V.688h5.4ZM73.91,2.235H63.87V.688H73.91ZM72.147,14.219H63.87V12.707h8.276Zm1.332,10.113.864,1.547H63.87V24.332ZM76.106,18.5,74.449,25.88H67.4l1.294-1.547a6.852,6.852,0,0,0,3.168-.7A6.692,6.692,0,0,0,74.2,21.616,10.647,10.647,0,0,0,75.745,18.5ZM72.147,9.325V12.78H68.729v-.071a3.061,3.061,0,0,0,2.194-.919,3.029,3.029,0,0,0,.864-2.213V9.325Zm0,4.823V17.6h-.361v-.289a2.974,2.974,0,0,0-.864-2.2,3.1,3.1,0,0,0-2.194-.9v-.071ZM73.91.04V1.084l-4.391-.4A13.925,13.925,0,0,0,71.194.581Q72.074.474,72.83.329A5.425,5.425,0,0,0,73.91.04m0,2.088V6.339H73.55V5.907a3.64,3.64,0,0,0-.989-2.663A3.714,3.714,0,0,0,69.88,2.2V2.128Z" transform="translate(43.802 0.031)" fill="#fff"/>
        <path id="Path_26" data-name="Path 26" d="M76.883.12q.717,0,1.781.073t2.2.2q1.133.126,1.979.252a5.118,5.118,0,0,1,1.169.27l-.432,4.858h-.361a3.694,3.694,0,0,0-1.385-3.006,5.654,5.654,0,0,0-3.689-1.133A5.282,5.282,0,0,0,74.777,2.64a3.242,3.242,0,0,0-1.349,2.447,2.547,2.547,0,0,0,.684,1.871,8.367,8.367,0,0,0,1.835,1.476L82.82,12.9a6.1,6.1,0,0,1,3.24,5.974,7.042,7.042,0,0,1-2.7,5.488,10.848,10.848,0,0,1-6.838,1.962,17.235,17.235,0,0,1-3.077-.271,12.512,12.512,0,0,1-2.645-.755,5.678,5.678,0,0,1-1.835-1.169,5.077,5.077,0,0,1-.252-1.908,10.064,10.064,0,0,1,.341-2.267,7.082,7.082,0,0,1,.775-1.908h.323a6.208,6.208,0,0,0,.666,3.4,6.078,6.078,0,0,0,2.376,2.483,7,7,0,0,0,3.725.882,5.411,5.411,0,0,0,3.67-1.2,3.673,3.673,0,0,0,1.3-2.825,3.3,3.3,0,0,0-.666-2.015,6.625,6.625,0,0,0-2.178-1.728l-6.3-4.175a6.69,6.69,0,0,1-2.772-2.77,6.613,6.613,0,0,1-.684-3.671A7.136,7.136,0,0,1,70.4,3.126,6.281,6.281,0,0,1,72.978.912,8.909,8.909,0,0,1,76.883.12m7.161.361-.071.757H79.725V.481Z" transform="translate(53.928 0.094)" fill="#fff"/>
      </g>
    </g>
  </g>
</svg>
