<svg xmlns="http://www.w3.org/2000/svg" xmlns:xlink="http://www.w3.org/1999/xlink" width="70" height="51.099" viewBox="0 0 70 51.099">
  <defs>
    <clipPath id="clip-path">
      <rect id="Rectangle_468" data-name="Rectangle 468" width="70" height="51.099" fill="#6b4f39"/>
    </clipPath>
  </defs>
  <g id="Group_903" data-name="Group 903" transform="translate(0 0)">
    <g id="Group_715" data-name="Group 715" transform="translate(0 0)" clip-path="url(#clip-path)">
      <path id="Path_75" data-name="Path 75" d="M4.245,46.294Q0,41.965,0,34.117,0,19.064,21.624,0l5.124,5.446A111.925,111.925,0,0,0,15.134,19.223,21.251,21.251,0,0,0,11.051,30.6a20.628,20.628,0,0,1,7.05-.963,13.473,13.473,0,0,1,8.81,2.882,9.474,9.474,0,0,1-.641,15.219,17.873,17.873,0,0,1-10.414,2.882q-7.367,0-11.611-4.324m39.4.4Q39.4,42.29,39.4,34.439t5.768-16.5A89.845,89.845,0,0,1,61.031.481l5.124,5.446A129.187,129.187,0,0,0,54.463,19.783a20.574,20.574,0,0,0-4,11.292A18.785,18.785,0,0,1,57.5,29.953,13.553,13.553,0,0,1,66.4,32.916a9.1,9.1,0,0,1,3.6,7.29,9.272,9.272,0,0,1-4.245,7.847A17.244,17.244,0,0,1,55.422,51.1q-7.531,0-11.773-4.4" transform="translate(0 -0.001)" fill="#6b4f39"/>
    </g>
  </g>
</svg>
