<svg id="Group_761" data-name="Group 761" xmlns="http://www.w3.org/2000/svg" xmlns:xlink="http://www.w3.org/1999/xlink" width="259.333" height="45.845" viewBox="0 0 259.333 45.845">
  <defs>
    <clipPath id="clip-path">
      <rect id="Rectangle_504" data-name="Rectangle 504" width="259.333" height="45.845" fill="#1d1d1d"/>
    </clipPath>
  </defs>
  <g id="Group_760" data-name="Group 760" transform="translate(0 0)" clip-path="url(#clip-path)">
    <path id="Path_565" data-name="Path 565" d="M116.639,19.008a73.413,73.413,0,0,1-11.272,4.907c-1.7-3.622-2.934-7.394-4.413-11.107-1.5-3.765-3.089-7.739-5.983-10.684C93.7.83,91.829-.346,89.936.093a4.282,4.282,0,0,0-3.028,3.688A10.43,10.43,0,0,0,88.132,9.91a53.707,53.707,0,0,0,3.77,6.428c2.4,3.593,6.089,7.221,10.362,8.592a76.075,76.075,0,0,1-23.242,3.107,70.79,70.79,0,0,1-6.339-12.381c-1.27-3.21-2.318-6.956-5.214-9.122a5.5,5.5,0,0,0-5.023-1.09,4.44,4.44,0,0,0-2.584,3.864c-.485,4.152,2.1,8.1,4.549,11.2a38.476,38.476,0,0,0,4.918,5.139c.674.588,1.4,1.2,2.148,1.8a98.708,98.708,0,0,1-17.835-4.374q-.637-.212-1.275-.427a124.883,124.883,0,0,1-7.1-10.723c-1.051-1.788-1.982-3.655-3.089-5.409A9.175,9.175,0,0,0,38.4,2.836c-3.022-1.35-6.563-.022-6.919,3.506-.42,4.156,2.515,7.7,5.536,10.149.95.77,1.934,1.505,2.939,2.213a68.418,68.418,0,0,0-8.007-1.719,45.77,45.77,0,0,0-11.84-.295.542.542,0,0,0-.284-.212,3.06,3.06,0,0,0-2.111.433c-.129.066-.246.149-.373.216a26.379,26.379,0,0,0-7.98,2.95c-.819.474-.1,1.656.734,1.255A31.306,31.306,0,0,1,13,20.126c-.289.24-.582.469-.862.715C11,21.829,9.9,22.867,8.868,23.96a6.415,6.415,0,0,0-1.847,3.63c-.074.6.853.673,1.016.138A7.549,7.549,0,0,1,10.4,24.655c1.01-.939,2.042-1.861,3.1-2.751a28.965,28.965,0,0,1,3.238-2.4c.434-.273.889-.514,1.342-.754.809-.147,1.62-.273,2.431-.361-4.519,2.277-7.192,7.824-10.695,11.339a8.364,8.364,0,0,1-4.457,2.653A4.157,4.157,0,0,1,2.575,31.9c-1.022-.637-1.035-1.546-.775-2.613a11.479,11.479,0,0,1,2.167-4.366C5.039,23.573,6.445,22.8,7.689,21.66c.47-.431-.03-1.143-.591-1.016-2.515.568-4.769,3.325-5.89,5.507-1.195,2.326-2.186,5.561.521,7.2,2.591,1.565,5.738.528,7.938-1.206,2.656-2.093,4.425-5.037,6.47-7.678,2.191-2.827,5.067-5.683,8.824-6a.534.534,0,0,0,.43-.278,58.1,58.1,0,0,1,13.071,1.973c-1.374.151-2.743.348-4.085.626-3.731.773-7.463,2.106-10.3,4.736-1.331,1.231-2.746,2.911-2.656,4.838a3.455,3.455,0,0,0,2.8,3.092,10.339,10.339,0,0,0,5.169-.42,26.755,26.755,0,0,0,5.948-2.484c4.439-2.492,8.691-7.1,14.225-6.368a.6.6,0,0,0,.649-.439l2.584.862a94.505,94.505,0,0,0,21.369,4.908c.058,0,.118.006.177.009-2.768.728-5.658,1.09-8.234,2.434a15.187,15.187,0,0,0-7.007,7.676c-.619,1.592-.793,3.549.425,4.913A4.784,4.784,0,0,0,63.81,45.78c3.605-.48,6.947-2.928,9.111-5.754A40.543,40.543,0,0,0,76.2,34.577c.508-.938,1.024-1.876,1.595-2.779.444-.7.946-1.364,1.389-2.062a75.584,75.584,0,0,0,15.92-1.187q2.947-.55,5.832-1.333c-3.039,1.487-6.1,2.954-9.033,4.623s-5.86,4.245-5.67,7.946a5.05,5.05,0,0,0,2.039,3.947,6.069,6.069,0,0,0,4.617.786c3.652-.632,6.826-3.3,8.953-6.211,2.515-3.447,3.964-7.7,5.053-11.791a.8.8,0,0,0-.5-1.008,77.121,77.121,0,0,0,11.137-4.966c1-.547.108-2.079-.9-1.532m-81.66,7.261a35.242,35.242,0,0,1,5.625-1.85c.56-.136,1.128-.232,1.694-.342a24.959,24.959,0,0,0-2.951,1.7C36.016,28,32.8,30.18,28.889,31.254c-1.4.384-3.161.875-4.579.3-2.112-.861-.448-3.187.591-4.251a17.827,17.827,0,0,1,8.959-4.5,37.77,37.77,0,0,1,6-.83,24.742,24.742,0,0,1,3.069-.024A27.577,27.577,0,0,0,40,22.618a29.556,29.556,0,0,0-5.771,2.373c-.861.456-.1,1.648.748,1.278m14.3-4.656a3.166,3.166,0,0,0-.574-1.259q-1.487-2.11-3.009-4.19c-1.162-1.59-2.387-3.133-3.607-4.679-.373-.472-1.124.135-.823.635q2.646,4.4,5.517,8.658c-.533-.256-1.063-.517-1.574-.806-1.628-.924-3.2-1.938-4.75-2.992-3.072-2.093-6.386-4.521-7.3-8.349-.386-1.621-.336-3.872,1.465-4.6a4.262,4.262,0,0,1,3.986.66A11.7,11.7,0,0,1,41.652,8.66c.9,1.626,1.8,3.245,2.762,4.833,1.763,2.906,3.7,5.688,5.729,8.408l-.869-.289m26.612,10.3c-.866,1.385-1.611,2.842-2.432,4.251a16.315,16.315,0,0,1-7.054,7.03,6.922,6.922,0,0,1-4.507.828C60.1,43.54,60.15,41.681,60.7,40.23a13.651,13.651,0,0,1,6.508-6.952,32.012,32.012,0,0,1,6.37-2.144c-.615.439-1.236.87-1.827,1.342a29.269,29.269,0,0,0-4.706,4.794c-.455.577.285,1.385.83.83a51.284,51.284,0,0,1,4.894-4.366c.836-.66,1.709-1.276,2.6-1.855.287-.187.582-.362.875-.541-.121.193-.246.387-.362.574m.194-5.989c-.859-.789-1.683-1.623-2.467-2.486A31.468,31.468,0,0,1,69.5,17.787c-.358-.63-1.286-.075-.964.565a34.679,34.679,0,0,0,3.9,6.138,28.781,28.781,0,0,0,2.418,2.66c.177.174.365.337.549.507-1.156-.9-2.438-1.665-3.591-2.564a39.7,39.7,0,0,1-4.082-3.668c-2.545-2.62-5.291-5.713-6.136-9.362-.353-1.521-.516-3.913.95-4.946,1.595-1.124,3.76.22,4.888,1.414,2.242,2.38,3.083,5.892,4.322,8.83A65.935,65.935,0,0,0,76.3,26.12c-.074-.066-.151-.129-.224-.2M101.666,21.7a12.1,12.1,0,0,1-2.285-2.779,41.474,41.474,0,0,1-3.354-7.452c-.132-.356-.687-.22-.579.16a32.653,32.653,0,0,0,3.006,7.949,19.6,19.6,0,0,0,1.46,2.092c-.29-.166-.59-.306-.873-.489a20.581,20.581,0,0,1-4.272-3.713A42.1,42.1,0,0,1,91,12.118a16.835,16.835,0,0,1-2.644-5.86c-.314-1.745-.033-4.532,2.17-4.844C92.5,1.133,94.272,3,95.344,4.421c2.244,2.965,3.368,6.464,4.5,9.956a56.22,56.22,0,0,0,3.085,8.22,9.472,9.472,0,0,1-1.261-.9M101.6,35.168a16.492,16.492,0,0,1-6.923,6.891c-2.4,1.2-6.378,1.374-6.668-2.153-.27-3.287,2.622-5.341,5.161-6.754,3.582-1.993,7.188-3.949,10.787-5.912a29.9,29.9,0,0,1-1.968,2.926c-.616.8-1.276,1.56-1.968,2.291q-.506.534-1.038,1.041a2.265,2.265,0,0,0-.9,1.253.439.439,0,0,0,.419.547,1.908,1.908,0,0,0,1.322-.726q.586-.569,1.14-1.171a28.391,28.391,0,0,0,2.018-2.465c.375-.514.728-1.043,1.066-1.579a35.684,35.684,0,0,1-2.451,5.812" transform="translate(0 -0.001)" fill="#1d1d1d"/>
    <path id="Path_566" data-name="Path 566" d="M90.584,20.54a77.178,77.178,0,0,0,11.136,4.966.807.807,0,0,0-.5,1.008c1.088,4.087,2.537,8.344,5.053,11.791,2.126,2.915,5.3,5.58,8.954,6.211a6.07,6.07,0,0,0,4.617-.786,5.054,5.054,0,0,0,2.039-3.947c.188-3.7-2.73-6.271-5.672-7.944s-5.992-3.138-9.031-4.625q2.881.781,5.832,1.333a75.584,75.584,0,0,0,15.92,1.187c.444.7.944,1.36,1.388,2.062.571.9,1.087,1.841,1.6,2.779a40.486,40.486,0,0,0,3.281,5.451c2.164,2.824,5.507,5.274,9.111,5.752a4.787,4.787,0,0,0,4.3-1.233c1.217-1.366,1.043-3.323.423-4.915a15.184,15.184,0,0,0-7-7.676c-2.576-1.344-5.467-1.706-8.236-2.432.06,0,.119,0,.179-.011a94.573,94.573,0,0,0,21.368-4.907q1.287-.43,2.586-.864a.594.594,0,0,0,.648.439c5.534-.734,9.785,3.876,14.225,6.368a26.786,26.786,0,0,0,5.948,2.484,10.342,10.342,0,0,0,5.169.42,3.457,3.457,0,0,0,2.8-3.091c.089-1.927-1.327-3.608-2.658-4.839-2.841-2.63-6.572-3.963-10.3-4.736-1.341-.278-2.711-.475-4.083-.626a58.089,58.089,0,0,1,13.071-1.973.532.532,0,0,0,.43.278c3.757.315,6.633,3.172,8.822,6,2.046,2.641,3.814,5.584,6.47,7.678,2.2,1.734,5.349,2.771,7.938,1.206,2.708-1.637,1.716-4.872.521-7.2-1.12-2.183-3.375-4.94-5.89-5.507-.561-.127-1.062.585-.591,1.016,1.244,1.138,2.65,1.913,3.721,3.262a11.49,11.49,0,0,1,2.167,4.366c.26,1.066.249,1.977-.773,2.613a4.161,4.161,0,0,1-2.776.481,8.368,8.368,0,0,1-4.458-2.653c-3.5-3.516-6.175-9.062-10.695-11.339.812.088,1.623.213,2.432.361.453.24.906.481,1.341.754a28.82,28.82,0,0,1,3.238,2.4c1.054.891,2.086,1.813,3.1,2.751a7.559,7.559,0,0,1,2.357,3.074c.165.535,1.09.459,1.016-.138a6.418,6.418,0,0,0-1.846-3.63c-1.032-1.093-2.136-2.131-3.267-3.119-.281-.246-.575-.475-.862-.715a31.281,31.281,0,0,1,2.9,1.206c.834.4,1.554-.781.734-1.255a26.354,26.354,0,0,0-7.979-2.95c-.127-.067-.246-.151-.375-.216a3.067,3.067,0,0,0-2.111-.433.546.546,0,0,0-.282.212,45.769,45.769,0,0,0-11.84.295,68.1,68.1,0,0,0-8.007,1.72c1-.709,1.988-1.444,2.937-2.214,3.022-2.449,5.956-5.994,5.537-10.149-.358-3.528-3.9-4.855-6.919-3.506a9.166,9.166,0,0,0-3.771,3.68c-1.109,1.753-2.04,3.621-3.089,5.409a125.614,125.614,0,0,1-7.1,10.723l-1.276.427a98.7,98.7,0,0,1-17.833,4.375c.748-.594,1.473-1.212,2.148-1.8A38.465,38.465,0,0,0,143.7,20.51c2.449-3.1,5.035-7.05,4.549-11.2a4.443,4.443,0,0,0-2.583-3.864,5.5,5.5,0,0,0-5.024,1.09c-2.9,2.166-3.942,5.914-5.213,9.122A70.9,70.9,0,0,1,129.1,28.036a76.079,76.079,0,0,1-23.243-3.107c4.275-1.371,7.963-5,10.362-8.592a53.613,53.613,0,0,0,3.771-6.426,10.437,10.437,0,0,0,1.223-6.13A4.28,4.28,0,0,0,118.181.093c-1.893-.438-3.762.737-5.035,2.032-2.892,2.943-4.482,6.917-5.981,10.682-1.48,3.713-2.719,7.485-4.414,11.107a73.33,73.33,0,0,1-11.27-4.907c-1.005-.547-1.9.985-.9,1.532m83.3,4.45a29.582,29.582,0,0,0-5.769-2.373,27.6,27.6,0,0,0-2.931-.668,24.738,24.738,0,0,1,3.069.024,37.945,37.945,0,0,1,6,.83,17.818,17.818,0,0,1,8.957,4.5c1.04,1.063,2.705,3.389.593,4.25-1.418.579-3.185.088-4.581-.3C175.318,30.18,172.1,28,168.773,25.778a25.088,25.088,0,0,0-2.951-1.7c.565.11,1.134.205,1.692.342a35.206,35.206,0,0,1,5.627,1.85c.852.37,1.607-.82.746-1.278M157.976,21.9c2.028-2.721,3.964-5.5,5.728-8.408.963-1.589,1.863-3.207,2.76-4.833a11.7,11.7,0,0,1,3.045-3.972,4.262,4.262,0,0,1,3.986-.66c1.8.731,1.85,2.981,1.465,4.6-.911,3.826-4.223,6.254-7.3,8.347-1.546,1.054-3.121,2.068-4.75,2.992-.511.29-1.041.55-1.573.806q2.879-4.258,5.517-8.658c.3-.5-.45-1.107-.823-.635-1.22,1.546-2.445,3.089-3.607,4.681q-1.522,2.082-3.011,4.189a3.164,3.164,0,0,0-.572,1.259c-.29.1-.58.191-.869.289m-26.107,9.437c.293.179.588.354.877.541.894.579,1.766,1.195,2.6,1.855a51.474,51.474,0,0,1,4.894,4.366c.543.555,1.283-.252.83-.83a29.208,29.208,0,0,0-4.708-4.792c-.59-.474-1.211-.9-1.827-1.344a31.979,31.979,0,0,1,6.37,2.144,13.651,13.651,0,0,1,6.508,6.952c.55,1.451.6,3.31-1.192,3.792a6.93,6.93,0,0,1-4.507-.826,16.343,16.343,0,0,1-7.054-7.032c-.822-1.41-1.565-2.867-2.432-4.251-.116-.187-.242-.381-.362-.574m-.056-5.219a65.943,65.943,0,0,0,4.551-8.76c1.239-2.939,2.079-6.45,4.322-8.83,1.126-1.195,3.292-2.539,4.886-1.414,1.466,1.033,1.3,3.425.952,4.946-.845,3.649-3.593,6.743-6.136,9.362a40.08,40.08,0,0,1-4.083,3.669c-1.151.9-2.434,1.664-3.59,2.562.182-.169.37-.332.549-.507a28.541,28.541,0,0,0,2.417-2.66,34.63,34.63,0,0,0,3.9-6.138c.32-.638-.608-1.195-.966-.565a31.537,31.537,0,0,1-4.112,5.652c-.786.862-1.607,1.7-2.467,2.486-.074.067-.152.13-.226.2M105.19,22.6a55.949,55.949,0,0,0,3.085-8.222c1.129-3.492,2.253-6.991,4.5-9.956,1.074-1.418,2.849-3.287,4.821-3.008,2.2.312,2.482,3.1,2.169,4.844a16.806,16.806,0,0,1-2.644,5.86,41.979,41.979,0,0,1-3.768,5.347,20.59,20.59,0,0,1-4.273,3.713c-.282.183-.582.325-.872.489a19.591,19.591,0,0,0,1.458-2.092,32.594,32.594,0,0,0,3.008-7.949c.107-.379-.448-.516-.58-.16a41.468,41.468,0,0,1-3.353,7.452,12.145,12.145,0,0,1-2.285,2.779,9.643,9.643,0,0,1-1.262.9m-1.121,6.757c.34.536.692,1.065,1.068,1.579a28.391,28.391,0,0,0,2.018,2.465q.553.6,1.139,1.171a1.922,1.922,0,0,0,1.324.728.44.44,0,0,0,.417-.549c-.094-.577-.5-.872-.9-1.253q-.532-.506-1.038-1.041c-.692-.731-1.35-1.5-1.966-2.291a29.623,29.623,0,0,1-1.968-2.926c3.6,1.963,7.2,3.919,10.786,5.912,2.54,1.414,5.431,3.467,5.161,6.754-.289,3.527-4.262,3.35-6.668,2.155a16.5,16.5,0,0,1-6.923-6.892,35.9,35.9,0,0,1-2.451-5.812" transform="translate(51.217 -0.001)" fill="#1d1d1d"/>
  </g>
</svg>
